<svg width="20" height="21" viewBox="0 0 20 21" fill="none" xmlns="http://www.w3.org/2000/svg">
<path d="M19.9292 11.1277L17.8243 7.4442L17.8245 7.44437C17.7301 7.28088 17.5555 7.18045 17.3666 7.18116H2.63316C2.44429 7.18045 2.26969 7.28088 2.17527 7.44437L0.0703847 11.1279L0.0705609 11.1277C-0.023696 11.2908 -0.0235201 11.4919 0.0710895 11.6549C0.165527 11.8178 0.339946 11.9179 0.528302 11.917H1.58065V18.7578C1.57554 19.0119 1.75279 19.2334 2.00173 19.2841L9.89482 20.8627H10.1052L17.9983 19.2841C18.2472 19.2334 18.4245 19.0119 18.4193 18.7578V11.917H19.4717C19.66 11.9179 19.8345 11.8178 19.9289 11.6549C20.0235 11.4919 20.0237 11.2909 19.9294 11.1277H19.9292ZM2.93833 8.23369H9.09493L7.58997 10.8647H1.43337L2.93833 8.23369ZM2.63318 18.3265V11.9173H7.89493C8.0838 11.9182 8.2584 11.8177 8.35282 11.6542L9.47355 9.69152V19.6896L2.63318 18.3265ZM17.3671 18.3265L10.5263 19.6945V9.69648L11.6472 11.6592L11.647 11.6594C11.7427 11.8208 11.9173 11.9191 12.1049 11.9171H17.3666L17.3671 18.3265ZM12.4102 10.865L10.9053 8.23405H17.0619L18.5668 10.865H12.4102Z" fill="#525B61"/>
<path d="M11.7473 3.34556L12.426 2.66143V5.60285C12.426 5.89355 12.6617 6.12911 12.9523 6.12911C13.2428 6.12911 13.4785 5.89355 13.4785 5.60285V2.66143L14.1574 3.34556H14.1572C14.3637 3.55187 14.6981 3.55187 14.9046 3.34556C15.1109 3.13907 15.1109 2.80468 14.9046 2.5982L13.3259 1.01958C13.2271 0.920041 13.0925 0.864014 12.9523 0.864014C12.812 0.864014 12.6774 0.920041 12.5786 1.01958L10.9999 2.5982C10.7936 2.80469 10.7936 3.13908 10.9999 3.34556C11.2064 3.55187 11.5408 3.55187 11.7473 3.34556H11.7473Z" fill="#525B61"/>
<path d="M5.95882 3.34556L6.63767 2.66143V5.60285C6.63767 5.89355 6.87323 6.12911 7.16393 6.12911C7.45446 6.12911 7.69002 5.89355 7.69002 5.60285V2.66143L8.36887 3.34556C8.57518 3.55187 8.90975 3.55187 9.11605 3.34556C9.32236 3.13907 9.32236 2.80468 9.11605 2.5982L7.53743 1.01958C7.43859 0.920041 7.30416 0.864014 7.16392 0.864014C7.0235 0.864014 6.88907 0.920041 6.79024 1.01958L5.21162 2.5982C5.00531 2.80469 5.00531 3.13908 5.21162 3.34556C5.41793 3.55187 5.7525 3.55187 5.9588 3.34556H5.95882Z" fill="#525B61"/>
</svg>
