<svg width="21" height="29" viewBox="0 0 21 29" fill="none" xmlns="http://www.w3.org/2000/svg">
<path d="M14.0549 15.2113C13.7376 15.2113 13.4808 15.3761 13.4808 15.5801V16.847C13.4808 17.0509 13.7373 17.2159 14.0549 17.2159C14.3734 17.2159 14.629 17.0511 14.629 16.847V15.5801C14.6286 15.3766 14.3722 15.2113 14.0549 15.2113Z" fill="#525B61"/>
<path d="M2.73892 19.064C2.78599 19.0717 2.83307 19.0746 2.87954 19.0746C3.13601 19.0746 3.36986 18.9628 3.43559 18.7957L4.47985 16.1317C4.49483 16.0934 4.50002 16.0543 4.49544 16.0158L4.25608 13.8719C4.22399 13.3324 4.21023 12.8268 4.21023 12.3265C4.21023 10.3918 4.40831 9.0204 4.66082 8.15814C5.07227 9.0204 5.56257 10.4423 5.56257 12.3265C5.56257 12.8366 5.54881 13.3565 5.51733 13.8715C5.50541 14.0744 5.74966 14.2451 6.06543 14.254C6.07521 14.2544 6.08194 14.2544 6.09111 14.2544C6.39466 14.2544 6.64961 14.1014 6.66397 13.9043L6.7456 12.8588C6.72542 12.441 6.71105 12.0071 6.71105 11.5603C6.71105 9.74877 7.17784 8.13363 7.61343 7.10283C7.86593 8.06253 8.06463 9.58711 8.06463 11.5603C8.06463 11.7764 8.06188 11.9897 8.05607 12.1983L8.03131 12.861C8.02336 13.0643 8.27403 13.2328 8.59041 13.2383C8.91231 13.2317 9.17 13.0842 9.17948 12.8803C9.19048 12.6623 9.19721 12.4415 9.20363 12.2146C9.49985 11.665 9.86147 11.4011 10.0956 11.38C10.327 11.4011 10.6902 11.6644 10.9858 12.2146L10.9882 12.2759C10.994 12.4806 11.0008 12.6815 11.0093 12.8797C11.0191 13.0801 11.2734 13.2386 11.5834 13.2386H11.5978C11.9142 13.2327 12.1633 13.0641 12.1575 12.8613L12.1358 12.2612C12.1294 12.0318 12.1254 11.798 12.1254 11.5603C12.1254 9.65586 12.3216 8.09453 12.5787 7.10772C13.0149 8.13933 13.4781 9.7521 13.4781 11.5603C13.4781 12.0078 13.4661 12.4411 13.4441 12.8895L13.5245 13.9048C13.5401 14.1018 13.7944 14.2548 14.0974 14.2548C14.1065 14.2548 14.1139 14.2548 14.1227 14.2544C14.4391 14.2467 14.6846 14.0751 14.6715 13.8728C14.6409 13.3281 14.6262 12.8223 14.6262 12.3272C14.6262 10.4407 15.1169 9.01849 15.528 8.1578C15.7799 9.02045 15.9786 10.3917 15.9786 12.3272C15.9786 12.8406 15.9636 13.3528 15.9342 13.8529L15.6976 14.8837C15.6885 14.9224 15.6897 14.9631 15.7004 15.0018L16.7455 18.7728C16.7947 18.9514 17.0371 19.0767 17.3092 19.0767C17.3431 19.0767 17.3758 19.0745 17.4113 19.07C17.7231 19.0342 17.9301 18.8431 17.8756 18.643L16.8476 14.9313L17.075 13.94C17.0778 13.927 17.0802 13.9135 17.0808 13.9009C17.1117 13.3861 17.1273 12.8564 17.1273 12.3264C17.1273 9.80086 16.7776 7.79548 16.1916 6.96274C16.0837 6.81012 15.8364 6.73215 15.5906 6.75513C15.3433 6.73195 15.0969 6.80894 14.9884 6.96274C14.8707 7.12911 14.5344 7.6398 14.2101 8.44825C13.8891 7.24342 13.4483 6.30061 13.1172 5.82826C13.0093 5.67564 12.762 5.59845 12.515 5.62064C12.2699 5.59805 12.0207 5.67524 11.9128 5.82826C11.402 6.55404 11.0449 8.52604 10.9853 10.8596C10.7511 10.7423 10.498 10.6704 10.2318 10.6512C10.1963 10.6465 10.1612 10.6441 10.1239 10.6441H10.0643C10.0282 10.6441 9.99181 10.6463 9.95696 10.6512C9.68948 10.6722 9.43637 10.7423 9.20221 10.86C9.1426 8.52748 8.78372 6.55448 8.27534 5.82815C8.16743 5.67553 7.91829 5.59834 7.6716 5.62053C7.42491 5.59873 7.17913 5.67513 7.07 5.82815C6.73924 6.30132 6.29691 7.24512 5.9784 8.4503C5.65283 7.64185 5.31719 7.13037 5.1995 6.96323C5.09159 6.80983 4.84306 6.73264 4.59729 6.75562C4.35152 6.73303 4.1036 6.81022 3.99691 6.96323C3.4109 7.79682 3.06025 9.80165 3.06025 12.3269C3.06025 12.837 3.07401 13.351 3.10855 13.9132L3.34149 16.0109L2.32048 18.617C2.24436 18.813 2.43108 19.0135 2.73892 19.064Z" fill="#525B61"/>
<path d="M6.13839 15.2113C5.82109 15.2113 5.56431 15.3761 5.56431 15.5801V16.8478C5.56431 17.0517 5.82078 17.2167 6.13839 17.2167C6.45692 17.2167 6.71248 17.0519 6.71248 16.8478V15.5801C6.71217 15.3766 6.4557 15.2113 6.13839 15.2113Z" fill="#525B61"/>
<path d="M9.52222 14.7507V16.0176C9.52222 16.2215 9.77869 16.3865 10.0963 16.3865C10.4136 16.3865 10.6704 16.2217 10.6704 16.0176V14.7507C10.6704 14.5468 10.4139 14.3818 10.0963 14.3818C9.77869 14.382 9.52222 14.5472 9.52222 14.7507Z" fill="#525B61"/>
<path d="M5.25252 5.95725V5.50254C5.25252 5.29788 4.99666 5.13367 4.67844 5.13367C4.36113 5.13367 4.10435 5.29788 4.10435 5.50254V5.95725C4.10435 6.16113 4.36082 6.32612 4.67844 6.32612C4.99605 6.32612 5.25252 6.16093 5.25252 5.95725Z" fill="#525B61"/>
<path d="M8.32802 4.76382V4.30832C8.32802 4.10444 8.07155 3.93945 7.75394 3.93945C7.43663 3.93945 7.17985 4.10425 7.17985 4.30832V4.76342C7.17985 4.96731 7.43632 5.1323 7.75394 5.1323C8.07155 5.1323 8.32802 4.96731 8.32802 4.76382Z" fill="#525B61"/>
<path d="M15.5934 6.32631C15.9107 6.32631 16.1675 6.16152 16.1675 5.95744V5.50273C16.1675 5.29806 15.911 5.13386 15.5934 5.13386C15.2749 5.13386 15.0193 5.29806 15.0193 5.50273V5.95744C15.0193 6.16112 15.2761 6.32631 15.5934 6.32631Z" fill="#525B61"/>
<path d="M12.5163 5.13269C12.8336 5.13269 13.0904 4.96829 13.0904 4.76382V4.30832C13.0904 4.10444 12.8339 3.93945 12.5163 3.93945C12.199 3.93945 11.9422 4.10425 11.9422 4.30832V4.76342C11.9426 4.96731 12.1996 5.13269 12.5163 5.13269Z" fill="#525B61"/>
<path d="M12.2604 19.496C12.1696 19.3009 11.8505 19.1905 11.5463 19.2485C11.2434 19.3064 11.0704 19.5128 11.1606 19.7069L13.7314 25.2149C13.806 25.3754 14.0335 25.4779 14.2814 25.4779C14.3358 25.4779 14.3899 25.4728 14.4461 25.4624C14.7488 25.404 14.9221 25.198 14.8313 25.0036L12.2604 19.496Z" fill="#525B61"/>
<path d="M8.78427 19.248C8.47889 19.1901 8.16035 19.3005 8.06956 19.4955L5.49867 25.0035C5.40787 25.198 5.58029 25.404 5.88384 25.4623C5.93887 25.4728 5.99297 25.4779 6.04861 25.4779C6.29592 25.4779 6.52335 25.3753 6.59854 25.2149L9.16944 19.7069C9.25992 19.5122 9.08843 19.306 8.78427 19.248Z" fill="#525B61"/>
<path d="M15.2436 20.6997C15.1317 20.5086 14.801 20.4139 14.5044 20.484C14.2076 20.5555 14.0584 20.7684 14.1688 20.9589L16.4526 24.8661C16.5382 25.0132 16.7568 25.1043 16.9903 25.1043C17.0576 25.1043 17.1252 25.0967 17.193 25.0812C17.4904 25.01 17.639 24.7967 17.5287 24.6064L15.2436 20.6997Z" fill="#525B61"/>
<path d="M5.33077 20.484C5.0318 20.4139 4.70227 20.5087 4.59161 20.6996L2.30776 24.6068C2.19802 24.7975 2.34689 25.0102 2.64341 25.0815C2.71005 25.0974 2.77761 25.1047 2.8467 25.1047C3.0775 25.1047 3.29668 25.0136 3.38441 24.8664L5.66826 20.9593C5.77708 20.7688 5.62668 20.5559 5.33077 20.484Z" fill="#525B61"/>
<path d="M18.0741 21.097L18.6189 20.8827C18.7904 20.8151 18.8943 20.6949 18.8937 20.567C18.8925 20.4368 18.7858 20.3184 18.6143 20.252L10.3613 17.0812C10.18 17.0111 9.95138 17.0115 9.77133 17.082L1.57784 20.2528C1.40512 20.3195 1.30057 20.4386 1.29996 20.5674C1.29935 20.6973 1.40328 20.8171 1.57478 20.8835L2.11616 21.0962L0.091574 24.0831C-0.0358986 24.2697 0.0989113 24.4877 0.389624 24.5684C0.680646 24.65 1.01874 24.5633 1.14437 24.3773L3.36921 21.0964C3.48293 20.9274 3.38572 20.7304 3.14179 20.6342L2.98038 20.5708L10.0708 17.8276L17.2124 20.5715L17.0553 20.6338C16.8113 20.7292 16.7144 20.9249 16.8269 21.093L19.0019 24.374C19.0949 24.5144 19.3067 24.5983 19.5299 24.5983C19.6051 24.5983 19.6821 24.5894 19.7561 24.5688C20.0483 24.4891 20.1831 24.2722 20.0581 24.0848L18.0741 21.097Z" fill="#525B61"/>
</svg>
