<svg width="21" height="26" viewBox="0 0 32 26" fill="none" xmlns="http://www.w3.org/2000/svg">
<mask id="path-1-outside-1_1724_9905" maskUnits="userSpaceOnUse" x="9.72827" y="7.74927" width="16" height="11" fill="black">
<rect fill="white" x="9.72827" y="7.74927" width="16" height="11"/>
<path d="M24.6283 11.5019L23.1602 8.93273L23.1603 8.93286C23.0945 8.81882 22.9727 8.74878 22.841 8.74927H12.5648C12.4331 8.74878 12.3113 8.81882 12.2455 8.93286L10.7774 11.502L10.7775 11.5019C10.7117 11.6157 10.7119 11.7559 10.7779 11.8696C10.8437 11.9832 10.9654 12.053 11.0967 12.0524H11.8307V16.8237C11.8272 17.0009 11.9508 17.1553 12.1244 17.1907L17.6296 18.2918H17.7763L23.2815 17.1907C23.4552 17.1553 23.5788 17.0009 23.5752 16.8237V12.0524H24.3092C24.4406 12.053 24.5622 11.9832 24.6281 11.8696C24.6941 11.7559 24.6942 11.6157 24.6285 11.5019H24.6283ZM12.7777 9.48338H17.0717L16.0221 11.3184H11.728L12.7777 9.48338ZM12.5648 16.5228V12.0526H16.2348C16.3665 12.0532 16.4883 11.9831 16.5541 11.8691L17.3358 10.5002V17.4735L12.5648 16.5228ZM22.8413 16.5228L18.07 17.477V10.5036L18.8518 11.8726L18.8517 11.8727C18.9184 11.9853 19.0402 12.0538 19.1711 12.0525H22.841L22.8413 16.5228ZM19.3841 11.3187L18.3344 9.48363H22.6284L23.6781 11.3187H19.3841Z"/>
</mask>
<path d="M24.6283 11.5019L23.1602 8.93273L23.1603 8.93286C23.0945 8.81882 22.9727 8.74878 22.841 8.74927H12.5648C12.4331 8.74878 12.3113 8.81882 12.2455 8.93286L10.7774 11.502L10.7775 11.5019C10.7117 11.6157 10.7119 11.7559 10.7779 11.8696C10.8437 11.9832 10.9654 12.053 11.0967 12.0524H11.8307V16.8237C11.8272 17.0009 11.9508 17.1553 12.1244 17.1907L17.6296 18.2918H17.7763L23.2815 17.1907C23.4552 17.1553 23.5788 17.0009 23.5752 16.8237V12.0524H24.3092C24.4406 12.053 24.5622 11.9832 24.6281 11.8696C24.6941 11.7559 24.6942 11.6157 24.6285 11.5019H24.6283ZM12.7777 9.48338H17.0717L16.0221 11.3184H11.728L12.7777 9.48338ZM12.5648 16.5228V12.0526H16.2348C16.3665 12.0532 16.4883 11.9831 16.5541 11.8691L17.3358 10.5002V17.4735L12.5648 16.5228ZM22.8413 16.5228L18.07 17.477V10.5036L18.8518 11.8726L18.8517 11.8727C18.9184 11.9853 19.0402 12.0538 19.1711 12.0525H22.841L22.8413 16.5228ZM19.3841 11.3187L18.3344 9.48363H22.6284L23.6781 11.3187H19.3841Z" fill="#525B61"/>
<path d="M24.6283 11.5019L23.1602 8.93273L23.1603 8.93286C23.0945 8.81882 22.9727 8.74878 22.841 8.74927H12.5648C12.4331 8.74878 12.3113 8.81882 12.2455 8.93286L10.7774 11.502L10.7775 11.5019C10.7117 11.6157 10.7119 11.7559 10.7779 11.8696C10.8437 11.9832 10.9654 12.053 11.0967 12.0524H11.8307V16.8237C11.8272 17.0009 11.9508 17.1553 12.1244 17.1907L17.6296 18.2918H17.7763L23.2815 17.1907C23.4552 17.1553 23.5788 17.0009 23.5752 16.8237V12.0524H24.3092C24.4406 12.053 24.5622 11.9832 24.6281 11.8696C24.6941 11.7559 24.6942 11.6157 24.6285 11.5019H24.6283ZM12.7777 9.48338H17.0717L16.0221 11.3184H11.728L12.7777 9.48338ZM12.5648 16.5228V12.0526H16.2348C16.3665 12.0532 16.4883 11.9831 16.5541 11.8691L17.3358 10.5002V17.4735L12.5648 16.5228ZM22.8413 16.5228L18.07 17.477V10.5036L18.8518 11.8726L18.8517 11.8727C18.9184 11.9853 19.0402 12.0538 19.1711 12.0525H22.841L22.8413 16.5228ZM19.3841 11.3187L18.3344 9.48363H22.6284L23.6781 11.3187H19.3841Z" stroke="#525B61" stroke-width="0.45" mask="url(#path-1-outside-1_1724_9905)"/>
<mask id="path-2-outside-2_1724_9905" maskUnits="userSpaceOnUse" x="0" y="0" width="32" height="26" fill="black">
<rect fill="white" width="32" height="26"/>
<path d="M21.2359 24.864C19.9495 24.864 18.6943 24.4636 17.6459 23.7258C16.5983 24.4631 15.3428 24.864 14.0567 24.864C10.6139 24.864 7.81364 22.0636 7.81364 18.6204C7.81364 18.5962 7.81435 18.5716 7.81435 18.5469C5.65877 17.5084 4.29237 15.3559 4.29237 12.9324C4.29237 10.509 5.65877 8.35645 7.81435 7.31703C7.81435 7.2924 7.81364 7.26801 7.81364 7.24361C7.81364 3.80089 10.6144 1 14.0567 1C15.3438 1 16.5988 1.40082 17.6459 2.13747C18.6933 1.40077 19.9488 1 21.2359 1C24.6782 1 27.479 3.80077 27.479 7.24361C27.479 7.26777 27.4783 7.29263 27.4783 7.31726C29.6338 8.3565 31 10.509 31 12.9322C31 15.3557 29.6338 17.5075 27.4783 18.547C27.4783 18.5719 27.479 18.596 27.479 18.6204C27.479 22.0634 24.6786 24.864 21.2359 24.864ZM17.6462 22.1642C17.805 22.1642 17.9635 22.2187 18.0923 22.3277C18.9716 23.0728 20.0881 23.4837 21.2359 23.4837C23.9164 23.4837 26.098 21.3023 26.098 18.6205C26.098 18.4872 26.0905 18.343 26.0746 18.169C26.0464 17.8624 26.2249 17.574 26.512 17.4623C28.3995 16.7304 29.6186 14.9528 29.6186 12.9328C29.6186 10.9134 28.399 9.13499 26.512 8.40207C26.2249 8.29067 26.046 8.00266 26.0746 7.69564C26.0907 7.52115 26.098 7.37761 26.098 7.24416C26.098 4.56275 23.9161 2.3816 21.2359 2.3816C20.0869 2.3816 18.9708 2.7918 18.0929 3.53714C17.8347 3.75572 17.4564 3.75502 17.1996 3.5369C16.3217 2.7918 15.2051 2.3816 14.0566 2.3816C11.3759 2.3816 9.19402 4.563 9.19402 7.24417C9.19402 7.37809 9.20152 7.52584 9.21677 7.69564C9.24491 8.00218 9.06643 8.29066 8.77936 8.40208C6.89253 9.13499 5.67274 10.9135 5.67274 12.9328C5.67274 14.9526 6.89253 16.7306 8.77936 17.4623C9.06643 17.574 9.24538 17.8624 9.21677 18.169C9.20129 18.3388 9.19402 18.4868 9.19402 18.6205C9.19402 21.3021 11.3759 23.4837 14.0566 23.4837C15.2044 23.4837 16.3203 23.0728 17.1996 22.3277C17.3281 22.2189 17.4874 22.1642 17.6462 22.1642ZM3.58529 23.9789C2.1598 23.9789 1 22.8194 1 21.3934C1 19.9674 2.1595 18.8081 3.58529 18.8081C5.01053 18.8081 6.17075 19.9674 6.17075 21.3934C6.17099 22.8194 5.01053 23.9789 3.58529 23.9789ZM3.58529 20.1883C2.92088 20.1883 2.38051 20.7294 2.38051 21.3933C2.38051 22.0577 2.92088 22.5983 3.58529 22.5983C4.2497 22.5983 4.79006 22.0577 4.79006 21.3933C4.79006 20.7293 4.2497 20.1883 3.58529 20.1883Z"/>
</mask>
<path d="M21.2359 24.864C19.9495 24.864 18.6943 24.4636 17.6459 23.7258C16.5983 24.4631 15.3428 24.864 14.0567 24.864C10.6139 24.864 7.81364 22.0636 7.81364 18.6204C7.81364 18.5962 7.81435 18.5716 7.81435 18.5469C5.65877 17.5084 4.29237 15.3559 4.29237 12.9324C4.29237 10.509 5.65877 8.35645 7.81435 7.31703C7.81435 7.2924 7.81364 7.26801 7.81364 7.24361C7.81364 3.80089 10.6144 1 14.0567 1C15.3438 1 16.5988 1.40082 17.6459 2.13747C18.6933 1.40077 19.9488 1 21.2359 1C24.6782 1 27.479 3.80077 27.479 7.24361C27.479 7.26777 27.4783 7.29263 27.4783 7.31726C29.6338 8.3565 31 10.509 31 12.9322C31 15.3557 29.6338 17.5075 27.4783 18.547C27.4783 18.5719 27.479 18.596 27.479 18.6204C27.479 22.0634 24.6786 24.864 21.2359 24.864ZM17.6462 22.1642C17.805 22.1642 17.9635 22.2187 18.0923 22.3277C18.9716 23.0728 20.0881 23.4837 21.2359 23.4837C23.9164 23.4837 26.098 21.3023 26.098 18.6205C26.098 18.4872 26.0905 18.343 26.0746 18.169C26.0464 17.8624 26.2249 17.574 26.512 17.4623C28.3995 16.7304 29.6186 14.9528 29.6186 12.9328C29.6186 10.9134 28.399 9.13499 26.512 8.40207C26.2249 8.29067 26.046 8.00266 26.0746 7.69564C26.0907 7.52115 26.098 7.37761 26.098 7.24416C26.098 4.56275 23.9161 2.3816 21.2359 2.3816C20.0869 2.3816 18.9708 2.7918 18.0929 3.53714C17.8347 3.75572 17.4564 3.75502 17.1996 3.5369C16.3217 2.7918 15.2051 2.3816 14.0566 2.3816C11.3759 2.3816 9.19402 4.563 9.19402 7.24417C9.19402 7.37809 9.20152 7.52584 9.21677 7.69564C9.24491 8.00218 9.06643 8.29066 8.77936 8.40208C6.89253 9.13499 5.67274 10.9135 5.67274 12.9328C5.67274 14.9526 6.89253 16.7306 8.77936 17.4623C9.06643 17.574 9.24538 17.8624 9.21677 18.169C9.20129 18.3388 9.19402 18.4868 9.19402 18.6205C9.19402 21.3021 11.3759 23.4837 14.0566 23.4837C15.2044 23.4837 16.3203 23.0728 17.1996 22.3277C17.3281 22.2189 17.4874 22.1642 17.6462 22.1642ZM3.58529 23.9789C2.1598 23.9789 1 22.8194 1 21.3934C1 19.9674 2.1595 18.8081 3.58529 18.8081C5.01053 18.8081 6.17075 19.9674 6.17075 21.3934C6.17099 22.8194 5.01053 23.9789 3.58529 23.9789ZM3.58529 20.1883C2.92088 20.1883 2.38051 20.7294 2.38051 21.3933C2.38051 22.0577 2.92088 22.5983 3.58529 22.5983C4.2497 22.5983 4.79006 22.0577 4.79006 21.3933C4.79006 20.7293 4.2497 20.1883 3.58529 20.1883Z" fill="#525B61"/>
<path d="M21.2359 24.864C19.9495 24.864 18.6943 24.4636 17.6459 23.7258C16.5983 24.4631 15.3428 24.864 14.0567 24.864C10.6139 24.864 7.81364 22.0636 7.81364 18.6204C7.81364 18.5962 7.81435 18.5716 7.81435 18.5469C5.65877 17.5084 4.29237 15.3559 4.29237 12.9324C4.29237 10.509 5.65877 8.35645 7.81435 7.31703C7.81435 7.2924 7.81364 7.26801 7.81364 7.24361C7.81364 3.80089 10.6144 1 14.0567 1C15.3438 1 16.5988 1.40082 17.6459 2.13747C18.6933 1.40077 19.9488 1 21.2359 1C24.6782 1 27.479 3.80077 27.479 7.24361C27.479 7.26777 27.4783 7.29263 27.4783 7.31726C29.6338 8.3565 31 10.509 31 12.9322C31 15.3557 29.6338 17.5075 27.4783 18.547C27.4783 18.5719 27.479 18.596 27.479 18.6204C27.479 22.0634 24.6786 24.864 21.2359 24.864ZM17.6462 22.1642C17.805 22.1642 17.9635 22.2187 18.0923 22.3277C18.9716 23.0728 20.0881 23.4837 21.2359 23.4837C23.9164 23.4837 26.098 21.3023 26.098 18.6205C26.098 18.4872 26.0905 18.343 26.0746 18.169C26.0464 17.8624 26.2249 17.574 26.512 17.4623C28.3995 16.7304 29.6186 14.9528 29.6186 12.9328C29.6186 10.9134 28.399 9.13499 26.512 8.40207C26.2249 8.29067 26.046 8.00266 26.0746 7.69564C26.0907 7.52115 26.098 7.37761 26.098 7.24416C26.098 4.56275 23.9161 2.3816 21.2359 2.3816C20.0869 2.3816 18.9708 2.7918 18.0929 3.53714C17.8347 3.75572 17.4564 3.75502 17.1996 3.5369C16.3217 2.7918 15.2051 2.3816 14.0566 2.3816C11.3759 2.3816 9.19402 4.563 9.19402 7.24417C9.19402 7.37809 9.20152 7.52584 9.21677 7.69564C9.24491 8.00218 9.06643 8.29066 8.77936 8.40208C6.89253 9.13499 5.67274 10.9135 5.67274 12.9328C5.67274 14.9526 6.89253 16.7306 8.77936 17.4623C9.06643 17.574 9.24538 17.8624 9.21677 18.169C9.20129 18.3388 9.19402 18.4868 9.19402 18.6205C9.19402 21.3021 11.3759 23.4837 14.0566 23.4837C15.2044 23.4837 16.3203 23.0728 17.1996 22.3277C17.3281 22.2189 17.4874 22.1642 17.6462 22.1642ZM3.58529 23.9789C2.1598 23.9789 1 22.8194 1 21.3934C1 19.9674 2.1595 18.8081 3.58529 18.8081C5.01053 18.8081 6.17075 19.9674 6.17075 21.3934C6.17099 22.8194 5.01053 23.9789 3.58529 23.9789ZM3.58529 20.1883C2.92088 20.1883 2.38051 20.7294 2.38051 21.3933C2.38051 22.0577 2.92088 22.5983 3.58529 22.5983C4.2497 22.5983 4.79006 22.0577 4.79006 21.3933C4.79006 20.7293 4.2497 20.1883 3.58529 20.1883Z" stroke="#525B61" stroke-width="0.45" mask="url(#path-2-outside-2_1724_9905)"/>
</svg>
